<?xml version="1.0" encoding="utf-8"?>
<svg width="24px" height="23.878906px" viewBox="0 0 24 23.878906" version="1.1" xmlns:xlink="http://www.w3.org/1999/xlink" xmlns="http://www.w3.org/2000/svg">
  <g id="icons8-facebook">
    <path d="M12 0C5.37109 0 0 5.37109 0 12C0 18.0156 4.43359 22.9844 10.207 23.8516L10.207 15.1797L7.23828 15.1797L7.23828 12.0273L10.207 12.0273L10.207 9.92578C10.207 6.45313 11.8984 4.92578 14.7852 4.92578C16.1719 4.92578 16.9023 5.03125 17.2461 5.07422L17.2461 7.82812L15.2773 7.82812C14.0508 7.82812 13.625 8.99219 13.625 10.3008L13.625 12.0273L17.2188 12.0273L16.7305 15.1797L13.625 15.1797L13.625 23.8789C19.4805 23.082 24 18.0742 24 12C24 5.37109 18.6289 0 12 0Z" id="Path" fill="#000000" stroke="none" />
  </g>
</svg>