<?xml version="1.0" encoding="utf-8"?>
<svg width="29px" height="29px" viewBox="0 0 29 29" version="1.1" xmlns:xlink="http://www.w3.org/1999/xlink" xmlns="http://www.w3.org/2000/svg">
  <g id="icons8-facebook">
    <path d="M14.5 0C6.49007 0 0 6.52298 0 14.5735C0 21.8793 5.35726 27.9136 12.3335 28.9668L12.3335 18.4351L8.74626 18.4351L8.74626 14.6067L12.3335 14.6067L12.3335 12.0545C12.3335 7.83707 14.3773 5.98217 17.8654 5.98217C19.541 5.98217 20.4237 6.11026 20.839 6.16244L20.839 9.50695L18.4601 9.50695C16.978 9.50695 16.4635 10.9207 16.4635 12.5099L16.4635 14.6067L20.806 14.6067L20.216 18.4351L16.4635 18.4351L16.4635 29C23.5389 28.0322 29 21.9504 29 14.5735C29 6.52298 22.5099 0 14.5 0Z" id="Path" fill="#FFFFFF" stroke="none" />
  </g>
</svg>