<?xml version="1.0" encoding="utf-8"?>
<svg width="21.802612px" height="21px" viewBox="0 0 21.802612 21" version="1.1" xmlns:xlink="http://www.w3.org/1999/xlink" xmlns="http://www.w3.org/2000/svg">
  <defs>
    <path d="M2.55334 0.937195L20.1494 18.3754Q20.191 18.4167 20.2284 18.4618Q20.2658 18.507 20.2985 18.5557Q20.3313 18.6043 20.359 18.656Q20.3868 18.7076 20.4094 18.7617Q20.432 18.8159 20.4491 18.8719Q20.4662 18.928 20.4777 18.9855Q20.4892 19.043 20.495 19.1014Q20.5008 19.1597 20.5008 19.2184Q20.5008 19.277 20.495 19.3354Q20.4892 19.3937 20.4777 19.4512Q20.4662 19.5087 20.4491 19.5648Q20.432 19.6209 20.4094 19.675Q20.3868 19.7292 20.359 19.7808Q20.3313 19.8324 20.2985 19.8811Q20.2658 19.9297 20.2284 19.9749Q20.191 20.0201 20.1494 20.0614L20.1479 20.0628Q20.106 20.1044 20.0602 20.1416Q20.0145 20.1789 19.9653 20.2115Q19.9161 20.2441 19.864 20.2718Q19.8118 20.2995 19.7572 20.322Q19.7027 20.3444 19.6461 20.3615Q19.5896 20.3785 19.5317 20.3899Q19.4738 20.4014 19.4151 20.4072Q19.3563 20.4129 19.2973 20.4129Q19.2383 20.4129 19.1795 20.4072Q19.1208 20.4014 19.0629 20.3899Q19.005 20.3785 18.9485 20.3615Q18.8919 20.3444 18.8374 20.322Q18.7828 20.2995 18.7306 20.2718Q18.6785 20.2441 18.6293 20.2115Q18.5801 20.1789 18.5344 20.1416Q18.4886 20.1044 18.4467 20.0628L0.850647 2.62462Q0.808994 2.58334 0.771614 2.53816Q0.734233 2.49297 0.701489 2.44433Q0.668744 2.39568 0.640955 2.34404Q0.613166 2.2924 0.590602 2.23827Q0.568039 2.18415 0.550921 2.12806Q0.533803 2.07197 0.522298 2.01447Q0.510793 1.95697 0.505012 1.89861Q0.499231 1.84026 0.499231 1.78162Q0.499231 1.72298 0.505012 1.66462Q0.510793 1.60626 0.522298 1.54876Q0.533803 1.49126 0.550921 1.43517Q0.568039 1.37909 0.590602 1.32496Q0.613166 1.27083 0.640955 1.21919Q0.668744 1.16755 0.701489 1.11891Q0.734233 1.07026 0.771614 1.02508Q0.808994 0.979892 0.850647 0.938614L0.852051 0.937195Q0.893976 0.895645 0.939752 0.858379Q0.985527 0.821114 1.03472 0.788486Q1.08391 0.755859 1.13604 0.728181Q1.18817 0.700503 1.24276 0.678037Q1.29734 0.655571 1.35386 0.638532Q1.41037 0.621493 1.46828 0.610043Q1.52618 0.598593 1.58493 0.59284Q1.64367 0.587088 1.7027 0.587088Q1.76172 0.587088 1.82047 0.59284Q1.87921 0.598593 1.93712 0.610043Q1.99503 0.621493 2.05154 0.638532Q2.10805 0.655571 2.16264 0.678037Q2.21722 0.700503 2.26936 0.728181Q2.32149 0.755859 2.37068 0.788486Q2.41987 0.821114 2.46564 0.858379Q2.51142 0.895645 2.55334 0.937195Z" id="path_1" />
    <path d="M1.65329 18.3754L19.2493 0.937195Q19.2912 0.895645 19.337 0.858379Q19.3828 0.821114 19.432 0.788486Q19.4812 0.755859 19.5333 0.728181Q19.5854 0.700503 19.64 0.678037Q19.6946 0.655571 19.7511 0.638532Q19.8076 0.621493 19.8655 0.610043Q19.9234 0.598593 19.9822 0.59284Q20.0409 0.587088 20.0999 0.587088Q20.159 0.587088 20.2177 0.59284Q20.2765 0.598593 20.3344 0.610043Q20.3923 0.621493 20.4488 0.638532Q20.5053 0.655571 20.5599 0.678037Q20.6145 0.700503 20.6666 0.728181Q20.7187 0.755859 20.7679 0.788486Q20.8171 0.821114 20.8629 0.858379Q20.9087 0.895645 20.9506 0.937195L20.952 0.938614Q20.9937 0.979892 21.031 1.02508Q21.0684 1.07026 21.1012 1.11891Q21.1339 1.16755 21.1617 1.21919Q21.1895 1.27083 21.212 1.32496Q21.2346 1.37909 21.2517 1.43517Q21.2688 1.49126 21.2803 1.54876Q21.2919 1.60626 21.2976 1.66462Q21.3034 1.72298 21.3034 1.78162Q21.3034 1.84026 21.2976 1.89861Q21.2919 1.95697 21.2803 2.01447Q21.2688 2.07197 21.2517 2.12806Q21.2346 2.18415 21.212 2.23827Q21.1895 2.2924 21.1617 2.34404Q21.1339 2.39568 21.1012 2.44433Q21.0684 2.49297 21.031 2.53816Q20.9937 2.58334 20.952 2.62462L3.35599 20.0628Q3.31406 20.1043 3.26829 20.1416Q3.22251 20.1789 3.17332 20.2115Q3.12413 20.2441 3.072 20.2718Q3.01986 20.2995 2.96528 20.3219Q2.9107 20.3444 2.85418 20.3615Q2.79767 20.3785 2.73976 20.3899Q2.68186 20.4014 2.62311 20.4071Q2.56437 20.4129 2.50534 20.4129Q2.44631 20.4129 2.38757 20.4071Q2.32882 20.4014 2.27092 20.3899Q2.21301 20.3785 2.1565 20.3615Q2.09999 20.3444 2.0454 20.3219Q1.99082 20.2995 1.93868 20.2718Q1.88655 20.2441 1.83736 20.2115Q1.78817 20.1789 1.74239 20.1416Q1.69662 20.1043 1.65469 20.0628L1.65329 20.0614Q1.61164 20.0201 1.57426 19.9749Q1.53688 19.9297 1.50413 19.8811Q1.47139 19.8324 1.4436 19.7808Q1.41581 19.7292 1.39324 19.675Q1.37068 19.6209 1.35356 19.5648Q1.33645 19.5087 1.32494 19.4512Q1.31344 19.3937 1.30765 19.3354Q1.30187 19.277 1.30187 19.2184Q1.30187 19.1597 1.30765 19.1014Q1.31344 19.043 1.32494 18.9855Q1.33645 18.928 1.35356 18.8719Q1.37068 18.8159 1.39324 18.7617Q1.41581 18.7076 1.4436 18.656Q1.47139 18.6043 1.50413 18.5557Q1.53688 18.507 1.57426 18.4618Q1.61164 18.4167 1.65329 18.3754Z" id="path_2" />
    <clipPath id="clip_1">
      <use xlink:href="#path_1" />
    </clipPath>
    <clipPath id="clip_2">
      <use xlink:href="#path_2" />
    </clipPath>
  </defs>
  <g id="Rectangle">
    <use stroke="none" fill="#89243B" xlink:href="#path_1" fill-rule="evenodd" />
    <g clip-path="url(#clip_1)">
      <use xlink:href="#path_1" fill="none" stroke="#89243B" stroke-width="4" />
    </g>
    <use xlink:href="#path_1" fill="none" stroke="#89243B" stroke-width="1" />
  </g>
  <g id="Rectangle">
    <use stroke="none" fill="#89243B" xlink:href="#path_2" fill-rule="evenodd" />
    <g clip-path="url(#clip_2)">
      <use xlink:href="#path_2" fill="none" stroke="#89243B" stroke-width="4" />
    </g>
    <use xlink:href="#path_2" fill="none" stroke="#89243B" stroke-width="1" />
  </g>
</svg>