<?xml version="1.0" encoding="utf-8"?>
<svg width="38px" height="21px" viewBox="0 0 38 21" version="1.1" xmlns:xlink="http://www.w3.org/1999/xlink" xmlns="http://www.w3.org/2000/svg">
  <g id="icons8-menu">
    <path d="M35.7647 3.5L2.23529 3.5C0.968627 3.5 0 2.74167 0 1.75C0 0.758333 0.968627 0 2.23529 0L35.7647 0C37.0314 0 38 0.758333 38 1.75C38 2.74167 37.0314 3.5 35.7647 3.5ZM30.0424 12.25L1.87765 12.25C0.813647 12.25 0 11.4917 0 10.5C0 9.50833 0.813647 8.75 1.87765 8.75L30.0424 8.75C31.1064 8.75 31.92 9.50833 31.92 10.5C31.92 11.4917 31.1064 12.25 30.0424 12.25Z" id="Shape" fill="#89243B" stroke="none" />
    <path d="M18.5976 21L1.16235 21C0.503686 21 0 20.2417 0 19.25C0 18.2583 0.503686 17.5 1.16235 17.5L18.5976 17.5C19.2563 17.5 19.76 18.2583 19.76 19.25C19.76 20.2417 19.2563 21 18.5976 21Z" id="Path" fill="#89243B" stroke="none" />
  </g>
</svg>