<?xml version="1.0" encoding="UTF-8"?><svg version="1.1" width="22px" height="22px" viewBox="0 0 22.0 22.0" xmlns="http://www.w3.org/2000/svg" xmlns:xlink="http://www.w3.org/1999/xlink"><defs><clipPath id="i0"><path d="M1024,0 L1024,2876 L0,2876 L0,0 L1024,0 Z"></path></clipPath><clipPath id="i1"><path d="M11,0 C17.0621033,0 22,4.93789681 22,11 C22,17.0621033 17.0621033,22 11,22 C4.93789681,22 0,17.0621033 0,11 C0,4.93789681 4.93789681,0 11,0 Z M11,2.2 C6.12686514,2.2 2.2,6.12686514 2.2,11 C2.2,15.8731353 6.12686514,19.8 11,19.8 C15.8731353,19.8 19.8,15.8731353 19.8,11 C19.8,6.12686514 15.8731353,2.2 11,2.2 Z M12.1,4.4 L12.1,10.5445318 L16.1777341,14.6222659 L14.6222659,16.1777341 L9.9,11.4554682 L9.9,4.4 L12.1,4.4 Z"></path></clipPath></defs><g transform="translate(-265.0 -798.0)"><g clip-path="url(#i0)"><g transform="translate(265.0 798.0)"><g clip-path="url(#i1)"><polygon points="0,0 22,0 22,22 0,22 0,0" stroke="none" fill="#B7B7B7"></polygon></g></g></g></g></svg>