<?xml version="1.0" encoding="utf-8"?>
<svg width="29px" height="29px" viewBox="0 0 29 29" version="1.1" xmlns:xlink="http://www.w3.org/1999/xlink" xmlns="http://www.w3.org/2000/svg">
  <g id="icons8-instagram">
    <path d="M8.45833 0C3.79492 0 0 3.79492 0 8.45833L0 20.5417C0 25.2051 3.79492 29 8.45833 29L20.5417 29C25.2051 29 29 25.2051 29 20.5417L29 8.45833C29 3.79492 25.2051 0 20.5417 0L8.45833 0ZM22.9583 4.83333C23.6239 4.83333 24.1667 5.37614 24.1667 6.04167C24.1667 6.70719 23.6239 7.25 22.9583 7.25C22.2928 7.25 21.75 6.70719 21.75 6.04167C21.75 5.37614 22.2928 4.83333 22.9583 4.83333ZM14.5 7.25C18.4979 7.25 21.75 10.5021 21.75 14.5C21.75 18.4979 18.4979 21.75 14.5 21.75C10.5021 21.75 7.25 18.4979 7.25 14.5C7.25 10.5021 10.5021 7.25 14.5 7.25ZM14.5 9.66667C11.8285 9.66667 9.66667 11.8285 9.66667 14.5C9.66667 17.1716 11.8285 19.3333 14.5 19.3333C17.1716 19.3333 19.3333 17.1716 19.3333 14.5C19.3333 11.8285 17.1716 9.66667 14.5 9.66667Z" id="Shape" fill="#FFFFFF" stroke="none" />
  </g>
</svg>