<?xml version="1.0" encoding="utf-8"?>
<svg width="29px" height="29px" viewBox="0 0 29 29" version="1.1" xmlns:xlink="http://www.w3.org/1999/xlink" xmlns="http://www.w3.org/2000/svg">
  <g id="icons8-music-2">
    <path d="M22.7857 0L6.21427 0C2.78886 0 -1.92821e-05 2.78618 -1.92821e-05 6.21429L-1.92821e-05 22.7857C-1.92821e-05 26.2138 2.78886 29 6.21427 29L22.7857 29C26.2111 29 29 26.2138 29 22.7857L29 6.21429C29 2.78618 26.2111 0 22.7857 0ZM21.4047 15.881L21.4047 18.6563L21.402 18.6563C21.394 20.5552 19.8512 22.0952 17.9524 22.0952L17.6071 22.0952C16.9247 22.0952 16.272 21.8039 15.8135 21.2996C15.3577 20.7952 15.1338 20.1128 15.2012 19.4331C15.3253 18.214 16.4231 17.2619 17.7069 17.2619L18.6428 17.2619C19.4034 17.2619 20.0238 16.6416 20.0238 15.881L20.0238 9.11644L11.7381 10.67L11.7381 20.7143C11.7381 22.6185 10.1899 24.1667 8.2857 24.1667L7.94046 24.1667C7.25807 24.1667 6.60536 23.8754 6.14684 23.371C5.69102 22.8666 5.46715 22.1842 5.53458 21.5046C5.65865 20.2854 6.7564 19.3333 8.04025 19.3333L8.97617 19.3333C9.73677 19.3333 10.3571 18.713 10.3571 17.9524L10.3571 7.83798C10.3571 7.17448 10.8318 6.60268 11.4845 6.48131L20.1775 4.85221C20.4823 4.79557 20.7925 4.87379 21.0298 5.07338C21.2699 5.27028 21.4047 5.56157 21.4047 5.86905L21.4047 15.881Z" id="Shape" fill="#FFFFFF" stroke="none" />
  </g>
</svg>