<?xml version="1.0" encoding="UTF-8"?><svg version="1.1" width="30px" height="29px" viewBox="0 0 30.0 29.0" xmlns="http://www.w3.org/2000/svg" xmlns:xlink="http://www.w3.org/1999/xlink"><defs><clipPath id="i0"><path d="M390,0 L390,2467 L0,2467 L0,0 L390,0 Z"></path></clipPath><clipPath id="i1"><path d="M22.7857143,0 C26.2111239,0 29,2.78617914 29,6.21428571 L29,22.7857143 C29,26.2138209 26.2111239,29 22.7857143,29 L6.21428571,29 C2.78887614,29 0,26.2138209 0,22.7857143 L0,6.21428571 C0,2.78617914 2.78887614,0 6.21428571,0 Z M21.0298547,5.07338152 C20.7925035,4.8737911 20.4823285,4.79557257 20.1775482,4.85221371 L11.4845607,6.48130598 C10.8318452,6.60267857 10.3571429,7.17447917 10.3571429,7.83798329 L10.3571429,17.952381 C10.3571429,18.7129833 9.73679281,19.3333333 8.97619048,19.3333333 L8.0402714,19.3333333 C6.75641724,19.3333333 5.65866781,20.2854351 5.53459821,21.5045571 C5.46716907,22.1842446 5.69103457,22.8666298 6.14685657,23.3710006 C6.60537557,23.875372 7.25809169,24.1666667 7.94047619,24.1666667 L8.28571429,24.1666667 C10.1899178,24.1666667 11.7380952,22.6184892 11.7380952,20.7142857 L11.7380952,10.6700149 L20.0238095,9.11644345 L20.0238095,15.8809524 C20.0238095,16.6415547 19.4034595,17.2619048 18.6428571,17.2619048 L17.7069381,17.2619048 C16.4230839,17.2619048 15.3253345,18.2140065 15.2012649,19.4331285 C15.1338357,20.112816 15.3577012,20.7952012 15.8135232,21.299572 C16.2720422,21.8039435 16.9247584,22.0952381 17.6071429,22.0952381 L17.952381,22.0952381 C19.8511905,22.0952381 21.3939732,20.5551524 21.4020649,18.6563428 L21.4047619,5.86904762 C21.4047619,5.56157029 21.2699036,5.27027495 21.0298547,5.07338152 Z"></path></clipPath></defs><g transform="translate(-202.0 -2325.0)"><g clip-path="url(#i0)"><g transform="translate(202.4473684210525 2325.0)"><g clip-path="url(#i1)"><polygon points="0,0 29,0 29,29 0,29 0,0" stroke="none" fill="#000000"></polygon></g></g></g></g></svg>