<?xml version="1.0" encoding="utf-8"?>
<svg width="16.839478px" height="16.219482px" viewBox="0 0 16.839478 16.219482" version="1.1" xmlns:xlink="http://www.w3.org/1999/xlink" xmlns="http://www.w3.org/2000/svg">
  <g id="Group">
    <path d="M1.97194 0.656841L15.5627 14.2476Q15.6274 14.3123 15.6782 14.3883Q15.729 14.4644 15.764 14.5489Q15.799 14.6335 15.8169 14.7232Q15.8347 14.8129 15.8347 14.9044Q15.8347 14.9959 15.8169 15.0856Q15.799 15.1754 15.764 15.2599Q15.729 15.3444 15.6782 15.4205Q15.6274 15.4966 15.5627 15.5613L15.5613 15.5627Q15.4966 15.6274 15.4205 15.6782Q15.3444 15.729 15.2599 15.764Q15.1754 15.799 15.0856 15.8169Q14.9959 15.8347 14.9044 15.8347Q14.8129 15.8347 14.7232 15.8169Q14.6335 15.799 14.5489 15.764Q14.4644 15.729 14.3883 15.6782Q14.3123 15.6274 14.2476 15.5627L0.656841 1.97194Q0.592148 1.90724 0.541319 1.83117Q0.490489 1.7551 0.455478 1.67057Q0.420466 1.58605 0.402617 1.49632Q0.384768 1.40659 0.384768 1.3151Q0.384768 1.22361 0.402617 1.13387Q0.420466 1.04414 0.455478 0.959616Q0.490489 0.87509 0.541319 0.799019Q0.592148 0.722948 0.656841 0.658255L0.658255 0.656841Q0.722948 0.592148 0.799019 0.541318Q0.87509 0.490489 0.959616 0.455478Q1.04414 0.420466 1.13387 0.402617Q1.22361 0.384768 1.3151 0.384768Q1.40659 0.384768 1.49632 0.402617Q1.58605 0.420466 1.67057 0.455478Q1.7551 0.490489 1.83117 0.541318Q1.90724 0.592148 1.97194 0.656841Z" id="Rectangle" fill="#89243B" fill-rule="evenodd" stroke="none" />
    <path d="M1.27678 14.2476L14.8675 0.65684Q14.9322 0.592147 15.0083 0.541318Q15.0844 0.490489 15.1689 0.455477Q15.2534 0.420466 15.3431 0.402617Q15.4329 0.384768 15.5244 0.384768Q15.6158 0.384768 15.7056 0.402617Q15.7953 0.420466 15.8798 0.455477Q15.9644 0.490489 16.0404 0.541318Q16.1165 0.592147 16.1812 0.65684L16.1826 0.658255Q16.2473 0.722948 16.2981 0.799019Q16.349 0.87509 16.384 0.959616Q16.419 1.04414 16.4368 1.13387Q16.4547 1.22361 16.4547 1.3151Q16.4547 1.40659 16.4368 1.49632Q16.419 1.58605 16.384 1.67058Q16.349 1.7551 16.2981 1.83117Q16.2473 1.90724 16.1826 1.97194L2.59188 15.5627Q2.52719 15.6274 2.45111 15.6782Q2.37504 15.729 2.29052 15.764Q2.20599 15.799 2.11626 15.8169Q2.02653 15.8347 1.93504 15.8347Q1.84355 15.8347 1.75382 15.8169Q1.66408 15.799 1.57956 15.764Q1.49503 15.729 1.41896 15.6782Q1.34289 15.6274 1.2782 15.5627L1.27678 15.5613Q1.21209 15.4966 1.16126 15.4205Q1.11043 15.3444 1.07542 15.2599Q1.04041 15.1754 1.02256 15.0856Q1.00471 14.9959 1.00471 14.9044Q1.00471 14.8129 1.02256 14.7232Q1.04041 14.6335 1.07542 14.5489Q1.11043 14.4644 1.16126 14.3883Q1.21209 14.3123 1.27678 14.2476Z" id="Rectangle" fill="#89243B" fill-rule="evenodd" stroke="none" />
  </g>
</svg>