<?xml version="1.0" encoding="utf-8"?>
<svg width="29px" height="29px" viewBox="0 0 29 29" version="1.1" xmlns:xlink="http://www.w3.org/1999/xlink" xmlns="http://www.w3.org/2000/svg">
  <g id="icons8-spotify-2">
    <path d="M14.4988 0C6.50352 0 0 6.50598 0 14.5012C0 22.4965 6.50352 29 14.4988 29C22.494 29 29 22.4965 29 14.5012C29 6.50598 22.494 0 14.4988 0ZM20.6355 21.0171C20.4558 21.2903 20.1555 21.438 19.8478 21.438C19.6681 21.438 19.486 21.3888 19.3259 21.2805C17.7678 20.2417 15.124 19.5475 12.9184 19.5475C10.5775 19.55 8.8248 20.1235 8.80511 20.1309C8.31279 20.2983 7.77617 20.0275 7.61124 19.5327C7.44631 19.0379 7.71216 18.5013 8.20941 18.3364C8.29064 18.3093 10.2747 17.6595 12.9184 17.6595C15.124 17.657 18.1912 18.2527 20.3746 19.7075C20.8103 19.998 20.926 20.5838 20.6355 21.0171ZM22.5211 17.1474C22.3168 17.4773 21.9648 17.6595 21.6029 17.6595C21.4085 17.6595 21.2091 17.6053 21.0318 17.4945C18.2059 15.7345 15.3012 15.3603 12.8003 15.3825C9.97683 15.4096 7.71709 15.9462 7.68016 15.9585C7.10661 16.121 6.50598 15.7862 6.34352 15.2126C6.18105 14.6391 6.51583 14.0409 7.08938 13.8784C7.26415 13.8268 9.51897 13.2729 12.6033 13.2483C15.4169 13.2237 18.9247 13.6323 22.1765 15.6582C22.6836 15.9733 22.8386 16.6404 22.5211 17.1474ZM24.4042 12.623C24.1679 13.0243 23.747 13.2458 23.3137 13.2458C23.0971 13.2458 22.878 13.1892 22.6786 13.0735C19.385 11.1387 15.38 10.7301 12.6009 10.7252C12.5886 10.7252 12.5738 10.7252 12.5615 10.7252C9.20143 10.7252 6.61183 11.3159 6.58722 11.3233C5.90782 11.4784 5.23088 11.0575 5.07334 10.3805C4.9158 9.70359 5.33673 9.02665 6.01367 8.86911C6.13182 8.84203 8.89619 8.20448 12.5615 8.20448C12.5763 8.20448 12.591 8.20448 12.6058 8.20448C15.6951 8.2094 20.1752 8.67957 23.9537 10.8975C24.5544 11.2519 24.7562 12.0249 24.4042 12.623Z" id="Shape" fill="#FFFFFF" stroke="none" />
  </g>
</svg>