<?xml version="1.0" encoding="UTF-8"?><svg version="1.1" width="30px" height="29px" viewBox="0 0 30.0 29.0" xmlns="http://www.w3.org/2000/svg" xmlns:xlink="http://www.w3.org/1999/xlink"><defs><clipPath id="i0"><path d="M390,0 L390,2467 L0,2467 L0,0 L390,0 Z"></path></clipPath><clipPath id="i1"><path d="M14.498769,0 C22.4940156,0 29,6.5059844 29,14.501231 C29,22.4964777 22.4940156,29 14.498769,29 C6.50352234,29 0,22.4964777 0,14.501231 C0,6.5059844 6.50352234,0 14.498769,0 Z M12.918428,17.6594438 C10.2746799,17.6594438 8.29063751,18.3093114 8.20940518,18.336389 C7.71216354,18.5013158 7.44631174,19.0379422 7.61123848,19.5327218 C7.77616521,20.027502 8.31279167,20.2982767 8.80510981,20.1308885 C8.82480254,20.1235036 10.5774551,19.5499531 12.918428,19.5474917 C15.1240133,19.5474917 17.7677614,20.2416599 19.3259488,21.2804515 C19.4859521,21.3887615 19.6681101,21.4379933 19.8478061,21.4379933 C20.1555047,21.4379933 20.4558191,21.2902979 20.6355151,21.0170612 C20.9259825,20.5838212 20.8102882,19.9979629 20.3745862,19.7074949 C18.1911557,18.2526946 15.1240133,17.65699 12.918428,17.6594438 Z M12.9187749,13.2473889 L12.6033444,13.2482809 C9.51897143,13.2728971 7.26415434,13.8267549 7.08938125,13.8784481 C6.51583077,14.0409134 6.18105443,14.6390801 6.3435191,15.2126306 C6.5059844,15.7861811 7.10661254,16.1209574 7.68016302,15.9584927 C7.71708703,15.9461843 9.97682699,15.4095578 12.8002717,15.3824802 C15.3012479,15.360326 18.2059249,15.7344878 21.031831,17.4945253 C21.2090656,17.6052968 21.4084542,17.6594514 21.6029201,17.6594514 C21.9647741,17.6594514 22.3167811,17.477294 22.5210933,17.1474406 C22.8386389,16.6403532 22.6835586,15.973262 22.1764706,15.6581784 C18.9247094,13.632289 15.4169428,13.2236653 12.6033444,13.2482809 Z M12.6058059,8.20448168 L12.5614976,8.20448168 C8.89618914,8.20448168 6.13182262,8.84203383 6.01366626,8.86911149 C5.33672866,9.02665329 4.91579649,9.70359026 5.0733383,10.3805279 C5.2308801,11.0574655 5.9078177,11.478397 6.58721674,11.3233173 C6.61183296,11.3159323 9.20142576,10.7251506 12.5614976,10.7251506 L12.600883,10.7251506 C15.3800188,10.7300734 19.385027,11.1386978 22.6786351,13.0735078 C22.8780244,13.1892027 23.0971058,13.2458195 23.3137258,13.2458195 C23.7469657,13.2458195 24.1678973,13.0242766 24.40421,12.6230372 C24.7562176,12.0248705 24.5543675,11.2519313 23.9537394,10.8974622 C20.1751975,8.67956853 15.6951024,8.20940455 12.6058059,8.20448168 Z"></path></clipPath></defs><g transform="translate(-242.0 -2325.0)"><g clip-path="url(#i0)"><g transform="translate(242.4473684210525 2325.0)"><g clip-path="url(#i1)"><polygon points="0,0 29,0 29,29 0,29 0,0" stroke="none" fill="#000000"></polygon></g></g></g></g></svg>